<svg xmlns="http://www.w3.org/2000/svg" width="176" height="183" viewBox="0 0 176 183"><defs><style>@import url(https://fonts.googleapis.com/css?family=Open+Sans:bold,italic,bolditalic%7CPT+Mono);@font-face{font-family:'PT Mono';font-weight:700;font-style:normal;src:local('PT MonoBold'),url(/font/PTMonoBold.woff2) format('woff2'),url(/font/PTMonoBold.woff) format('woff'),url(/font/PTMonoBold.ttf) format('truetype')}</style></defs><g id="combined" fill="none" fill-rule="evenodd" stroke="none" stroke-width="1"><g id="object.svg"><path fill="#232529" d="M0 0h176v183H0z"/><path id="Rectangle-4-Copy" fill="#4b4e65" stroke="#4b4e65" stroke-width="4" d="M134.063 113l16.667 20H20.27l16.667-20h97.126z" opacity=".5"/><g id="Group-2" transform="translate(33 6)"><g id="Group"><path id="Rectangle-7" fill="#232529" d="M0 0h32v124H0z"/><path id="Combined-Shape" fill="#4b4e65" d="M32 0v124H0V0h32zM16.5 100a7.5 7.5 0 100 15 7.5 7.5 0 000-15zM28 5H4v87h24V5z"/></g><text id="key1" fill="#7a7f9c" font-family="PTMono-Bold, PT Mono" font-size="16" font-weight="bold" transform="rotate(-90 15.5 47.5)"><tspan x="-3.7" y="52.5">key1</tspan></text></g><g id="Group-2-Copy" transform="translate(70 6)"><g id="Group"><path id="Rectangle-7" fill="#232529" d="M0 0h32v124H0z"/><path id="Combined-Shape" fill="#4b4e65" d="M32 0v124H0V0h32zM16.5 100a7.5 7.5 0 100 15 7.5 7.5 0 000-15zM28 5H4v87h24V5z"/></g><text id="key2" fill="#7a7f9c" font-family="PTMono-Bold, PT Mono" font-size="16" font-weight="bold" transform="rotate(-90 15.5 47.5)"><tspan x="-3.7" y="52.5">key2</tspan></text></g><g id="Group-2-Copy-2" transform="translate(107 6)"><g id="Group"><path id="Rectangle-7" fill="#232529" d="M0 0h32v124H0z"/><path id="Combined-Shape" fill="#4b4e65" d="M32 0v124H0V0h32zM16.5 100a7.5 7.5 0 100 15 7.5 7.5 0 000-15zM28 5H4v87h24V5z"/></g><text id="key3" fill="#7a7f9c" font-family="PTMono-Bold, PT Mono" font-size="16" font-weight="bold" transform="rotate(-90 15.5 47.5)"><tspan x="-3.7" y="52.5">key3</tspan></text></g><path id="Rectangle-4" fill="#252732" stroke="#4b4e65" stroke-width="4" d="M18 127h135v50H18z"/><path id="Rectangle-8" stroke="#4b4e65" stroke-width="3" d="M73.5 147.5h25v10h-25z"/></g></g></svg>